<?xml version="1.0" encoding="utf-8"?>
<!-- Generator: Adobe Illustrator 14.0.0, SVG Export Plug-In . SVG Version: 6.00 Build 43363)  -->
<!DOCTYPE svg PUBLIC "-//W3C//DTD SVG 1.1//EN" "http://www.w3.org/Graphics/SVG/1.1/DTD/svg11.dtd">
<svg version="1.1" id="Capa_1" xmlns="http://www.w3.org/2000/svg" xmlns:xlink="http://www.w3.org/1999/xlink" x="0px" y="0px"
	 width="74px" height="50px" viewBox="-8 -5 74 50" enable-background="new -8 -5 74 50" xml:space="preserve">
<g>
	<path fill="#2B3647" d="M61.209-3.038C59.944-4.302,58.346-5,56.702-5H-0.815C-4.777-5-8-0.937-8,4.06v31.853
		c0,2.803,0.992,5.405,2.723,7.136C-4.001,44.325-2.458,45-0.815,45h57.517c1.66,0,3.214-0.679,4.495-1.958
		c1.729-1.729,2.722-4.326,2.722-7.129V4.06C63.918,1.27,62.93-1.318,61.209-3.038z M-3.642-1.397c0.832-0.83,1.808-1.27,2.825-1.27
		h57.518c1.035,0,2.021,0.442,2.856,1.278c1.269,1.267,2.023,3.304,2.023,5.447v24.101h-67.25V4.06
		C-5.667,1.911-4.91-0.129-3.642-1.397z"/>
	<path fill="#2499D1" d="M7.291,21.763c-0.661,2.24-1.571,3.626-2.564,3.626c-0.98,0-1.875-1.386-2.526-3.626
		c-0.651-2.239-1.057-5.331-1.057-8.746c0-3.402,0.407-6.485,1.057-8.724c0.651-2.236,1.546-3.62,2.526-3.62
		c0.994,0,1.903,1.385,2.564,3.62C7.547,5.16,7.766,6.157,7.938,7.249h3.807c-0.381-1.472-0.902-2.806-1.533-3.938
		C8.833,0.833,6.938-0.7,4.866-0.7S0.912,0.834-0.451,3.311c-1.365,2.476-2.212,5.899-2.212,9.677c0,3.779,0.846,7.2,2.211,9.678
		c1.364,2.476,3.247,4.008,5.318,4.008s3.967-1.532,5.346-4.008c0.646-1.163,1.178-2.535,1.56-4.052H7.966
		C7.79,19.784,7.563,20.848,7.291,21.763z"/>
	<path fill="#2499D1" d="M34.955,25.22c-1.96,0-3.609-5.541-3.609-12.371c0-6.799,1.648-12.343,3.609-12.343
		c1.363,0,2.576,2.683,3.188,6.605h3.842c-1.201-4.708-3.837-7.978-6.862-7.978c-4.141,0-7.557,6.131-7.557,13.688
		c0,7.584,3.413,13.687,7.557,13.687c3.041,0,5.686-3.287,6.879-8.033h-3.838C37.557,22.476,36.335,25.22,34.955,25.22z"/>
	<path fill="#2499D1" d="M26.223,4.144c-0.447-1.314-1.204-2.491-2.24-3.33c-1.093-0.895-2.659-1.371-4.506-1.371h-5.289v8.424
		v18.697h3.61V16.293h2.378c1.959,0,3.499-0.728,4.562-2.183c1.12-1.455,1.765-3.528,1.902-5.936c0-0.109,0-0.195,0.028-0.308
		C26.698,6.607,26.531,5.32,26.223,4.144z M23.061,8.204c-0.141,4.058-0.364,6.494-4.563,6.494h-0.7c0-2.268,0-4.563,0-6.83
		c0-2.267,0-4.533,0-6.802l0.484-0.013c0.404,0.179,4.974-1.274,4.778,6.788C23.061,7.95,23.061,8.091,23.061,8.204z"/>
	<path fill="#2499D1" d="M53.615,18.475c-0.604,4.004-1.83,6.745-3.207,6.745c-1.795,0-3.328-4.642-3.575-10.662h7.408v-3.024
		h-7.422c0.195-6.187,1.757-11.028,3.589-11.028c1.362,0,2.576,2.683,3.188,6.605h3.814c-1.201-4.708-3.838-7.978-6.862-7.978
		c-4.143,0-7.557,6.131-7.557,13.688c0,7.584,3.412,13.687,7.557,13.687c3.041,0,5.688-3.287,6.88-8.033H53.615z"/>
	<path fill="#FFFFFF" d="M-1.124,37.566c0.672,0.476,1.428,0.725,2.211,0.725c0.922,0,1.763-0.308,2.351-0.895H5.51
		c-0.309,0.532-0.784,1.007-1.315,1.373c-0.503,0.308-1.147,0.529-1.651,0.669c-0.617,0.112-1.147,0.169-1.595,0.112
		c-0.924,0-1.681-0.193-2.381-0.474c-0.699-0.308-1.202-0.786-1.678-1.401c-0.364-0.532-0.588-1.26-0.671-2.042
		c0-0.339,0.14-0.756,0.308-1.176c0.196-0.446,0.531-0.866,0.979-1.23c0.364-0.364,0.923-0.728,1.539-0.952
		c0.589-0.252,1.26-0.366,2.044-0.366c0.615,0,1.202,0.114,1.763,0.282c0.588,0.141,1.204,0.42,1.678,0.783
		c0.449,0.308,0.84,0.727,1.037,1.147H3.607c-0.756-0.587-1.597-0.895-2.519-0.895c-0.532,0-1.064,0.111-1.54,0.364
		c-0.447,0.225-0.896,0.53-1.204,0.979c-0.224,0.363-0.391,0.783-0.391,1.203C-2.047,36.473-1.711,37.089-1.124,37.566z"/>
	<path fill="#FFFFFF" d="M14.048,34.878c0.055,0.278,0.14,0.557,0.14,0.866v0.027c0,0.701-0.393,1.316-0.98,1.792
		c-0.614,0.476-1.371,0.727-2.211,0.727c-0.392,0-0.867-0.056-1.371-0.251c-0.475-0.169-0.924-0.531-1.231-0.896
		c-0.28-0.363-0.532-0.84-0.532-1.314c0-0.027,0-0.057,0-0.084c0.027-0.755,0.336-1.398,1.008-1.875
		c0.673-0.421,1.511-0.645,2.351-0.645c0.475,0,0.838,0.111,1.231,0.224c0.365,0.195,0.673,0.364,0.98,0.561
		C13.655,34.262,13.88,34.568,14.048,34.878z M15.95,35.744c-0.027-0.417-0.141-0.84-0.336-1.23
		c-0.196-0.502-0.587-0.979-0.979-1.344c-0.447-0.363-0.979-0.728-1.595-0.895c-0.589-0.252-1.288-0.366-1.987-0.366
		c-0.755,0-1.596,0.17-2.352,0.423c-0.671,0.279-1.371,0.783-1.82,1.369c-0.42,0.591-0.672,1.26-0.699,2.046c0,0.056,0,0.083,0,0.14
		c0,0.418,0.085,0.838,0.252,1.258c0.141,0.365,0.532,0.842,0.896,1.205c0.391,0.363,0.923,0.67,1.539,0.896
		c0.587,0.195,1.343,0.307,2.127,0.307c1.064,0.057,1.96-0.111,2.715-0.476c0.702-0.42,1.316-0.923,1.624-1.511
		c0.363-0.533,0.615-1.092,0.615-1.569C15.95,35.913,15.95,35.829,15.95,35.744z"/>
	<path fill="#FFFFFF" d="M20.121,35.521h-1.063v-1.093v-1.091h0.923c1.204,0.056,1.82,0.42,1.82,1.035c0,0.026,0,0.026,0,0.056
		C21.855,35.129,21.241,35.521,20.121,35.521z M23.62,39.438l-2.491-2.715c0.812-0.111,1.427-0.42,1.902-0.895
		c0.364-0.421,0.532-0.897,0.532-1.374v-0.026c0-0.589-0.225-1.035-0.532-1.399c-0.308-0.336-0.755-0.645-1.315-0.754
		c-0.532-0.196-1.203-0.252-1.875-0.196h-2.548v2.351v5.012h1.764v-2.829l2.464,2.826H23.62z"/>
	<path fill="#FFFFFF" d="M41,34.878c0.087,0.278,0.168,0.557,0.168,0.866v0.027c0,0.701-0.391,1.316-1.009,1.792
		c-0.615,0.476-1.37,0.727-2.211,0.727c-0.364,0-0.84-0.056-1.372-0.251c-0.447-0.169-0.895-0.531-1.23-0.896
		c-0.278-0.363-0.502-0.84-0.502-1.314c0-0.027,0-0.057,0-0.084c0.026-0.755,0.306-1.398,0.977-1.875
		c0.703-0.421,1.514-0.645,2.352-0.645c0.477,0,0.84,0.111,1.231,0.224c0.364,0.195,0.702,0.364,0.98,0.561
		C40.608,34.262,40.862,34.568,41,34.878z M42.906,35.744c-0.028-0.417-0.113-0.84-0.311-1.23c-0.224-0.502-0.586-0.979-0.979-1.344
		c-0.448-0.363-1.009-0.728-1.596-0.895c-0.615-0.252-1.314-0.366-1.985-0.366c-0.755,0-1.598,0.17-2.351,0.423
		c-0.703,0.279-1.401,0.783-1.85,1.369c-0.419,0.591-0.643,1.26-0.672,2.046c0,0.056,0,0.083,0,0.14
		c0,0.418,0.084,0.838,0.225,1.258c0.14,0.365,0.533,0.842,0.896,1.205c0.391,0.363,0.923,0.67,1.538,0.896
		c0.615,0.195,1.373,0.307,2.128,0.307c1.063,0.057,1.988-0.111,2.742-0.476c0.701-0.42,1.317-0.923,1.595-1.511
		c0.392-0.533,0.618-1.092,0.618-1.569C42.906,35.913,42.906,35.829,42.906,35.744z"/>
	<path fill="#FFFFFF" d="M58.216,39.438l-0.979-1.872h-3.444l-0.977,1.872H50.91l2.297-4.365l1.596-2.994h1.369l1.599,2.994
		l2.349,4.365H58.216z M55.501,33.953l-0.505,1.12l-0.501,1.119h1.987l-0.479-1.119L55.501,33.953z"/>
	<path fill="#FFFFFF" d="M31.848,37.256c-0.308,0.673-0.839,1.147-1.652,1.57c-0.754,0.417-1.929,0.612-3.356,0.612h-2.128v-3.75
		v-3.61h1.652c0.699,0,1.399,0.055,2.069,0.111c0.616,0.084,1.232,0.252,1.763,0.504c0.505,0.28,0.979,0.645,1.344,1.064
		c0.391,0.504,0.646,1.12,0.646,1.764c0,0.055,0,0.112,0,0.167C32.213,36.164,32.155,36.724,31.848,37.256z M28.658,33.645
		c-0.532-0.251-1.287-0.307-2.212-0.307v2.351v2.354c1.232,0.054,2.212-0.059,2.911-0.476c0.756-0.367,1.146-0.954,1.146-1.794
		c0-0.028,0-0.058,0-0.084c-0.026-0.446-0.193-0.84-0.476-1.175C29.721,34.064,29.273,33.813,28.658,33.645z"/>
	<path fill="#FFFFFF" d="M49.986,36.192c-0.225-0.308-0.672-0.559-1.23-0.728c0.615-0.281,0.953-0.699,1.007-1.373
		c0-0.054,0-0.139,0-0.223c0-0.477-0.308-0.896-0.753-1.261c-0.533-0.335-1.376-0.532-2.356-0.532h-2.378v2.016v3.105v2.238h2.658
		c0.756,0,1.402-0.139,1.904-0.305c0.53-0.197,0.922-0.478,1.148-0.842c0.306-0.309,0.392-0.67,0.392-0.979c0-0.026,0-0.083,0-0.112
		C50.35,36.781,50.267,36.443,49.986,36.192z M46.012,34.092v-0.754h0.642c0.282,0,0.673,0.056,0.898,0.196
		c0.308,0.11,0.446,0.279,0.446,0.53v0.027c0,0.308-0.139,0.533-0.364,0.588c-0.224,0.114-0.614,0.198-1.147,0.198h-0.475V34.092z
		 M48.531,37.199c-0.027,0.645-0.56,0.953-1.68,0.953h-0.84v-0.953v-0.951h1.008c0.307,0,0.754,0.056,1.063,0.225
		c0.306,0.14,0.448,0.363,0.448,0.671C48.531,37.173,48.531,37.173,48.531,37.199z"/>
</g>
</svg>
